Coordinates
version=1
nRows=14
nColumns=36
inDegrees=yes

Units are S.I. units (second, meters, Newtons, ...)
If the header above contains a line with 'inDegrees', this indicates whether rotational values are in degrees (yes) or radians (no).

endheader
time	pelvis_tilt	pelvis_list	pelvis_rotation	pelvis_tx	pelvis_ty	pelvis_tz	hip_flexion_r	hip_adduction_r	hip_rotation_r	knee_angle_r	knee_angle_r_beta	ankle_angle_r	subtalar_angle_r	mtp_angle_r	hip_flexion_l	hip_adduction_l	hip_rotation_l	knee_angle_l	knee_angle_l_beta	ankle_angle_l	subtalar_angle_l	mtp_angle_l	lumbar_extension	lumbar_bending	lumbar_rotation	arm_flex_r	arm_add_r	arm_rot_r	elbow_flex_r	pro_sup_r	arm_flex_l	arm_add_l	arm_rot_l	elbow_flex_l	pro_sup_l
      0.00000000	      1.29864008	      0.06582194	      2.18587934	     -0.26266204	      0.91089421	     -0.22926358	     25.82233660	      0.26118614	     -2.95675561	      1.31522714	      0.02295504	      7.29030359	      1.55152276	     -6.01341094	    -24.28201041	      4.38558993	     -1.86185092	      5.86787022	      0.10241366	     16.05808575	     -0.35975391	     -6.01341094	     -9.20785994	      2.26497166	     -6.22931797	     -7.14112192	     -4.87945508	    -19.83384363	     29.38552510	    109.93673622	     11.30462066	    -11.30300763	     12.23982809	     36.18315806	    106.55746074
      0.01000000	      1.15717411	     -0.34365512	      2.29014976	     -0.24712207	      0.90886499	     -0.22977319	     25.87845122	      0.77109551	     -3.36165426	      2.11253985	      0.03687078	      5.37032826	      0.75378196	     -6.03359160	    -24.71560159	      3.82766536	     -2.18585938	      6.56751449	      0.11462475	     15.35930035	     -0.20578860	     -6.03359160	     -8.65590578	      3.11901369	     -6.34656295	     -7.39093818	     -4.91706069	    -20.18763471	     28.95948099	    109.82490733	     10.83252808	    -10.98428271	     11.89246721	     36.05760782	    106.55168057
      0.02000000	      0.94278948	     -0.75317168	      2.37693604	     -0.23150170	      0.90686477	     -0.23018876	     26.05753730	      1.29526565	     -3.61536034	      3.01404791	      0.05260506	      2.95833859	     -0.71635386	     -6.05490674	    -25.01568323	      3.26297619	     -2.66871507	      7.33470316	      0.12801472	     14.53756155	     -0.04408595	     -6.05490674	     -7.99948836	      3.95843170	     -6.46578058	     -7.63497230	     -4.92524456	    -20.77334062	     28.49693398	    109.68588688	     10.26761201	    -10.60289449	     11.27459578	     35.93103435	    106.50711886
      0.03000000	      0.67808246	     -1.23848623	      2.30680317	     -0.21594127	      0.90497926	     -0.23014317	     26.07672143	      2.07877674	     -2.09840632	      3.53018084	      0.06161328	     -0.97306245	     -5.06985335	     -6.12764953	    -25.16980795	      2.65053221	     -3.23832934	      8.27492124	      0.14442462	     13.96009223	      0.40042120	     -6.12764953	     -7.33801682	      4.84678907	     -6.64104212	     -7.70438330	     -4.79739688	    -22.13375162	     28.19447113	    109.47759347	      9.45455020	    -10.06080348	      9.42403059	     36.18628782	    106.47386218
      0.04000000	      0.53326078	     -1.81377588	      2.28433697	     -0.20012578	      0.90369092	     -0.23030798	     26.34318153	      2.78516545	     -2.39742706	      4.92397531	      0.08593958	     -2.88380601	     -5.70323037	     -6.14451345	    -25.37348500	      1.93174008	     -3.79167538	      9.28307911	      0.16202030	     12.67049665	      0.35026717	     -6.14451345	     -6.80488087	      5.87015790	     -6.64521337	     -7.93012457	     -4.91435252	    -22.46096209	     27.87175142	    109.43434978	      8.90560831	     -9.67226314	      9.13218892	     35.99290724	    106.46409193
      0.05000000	      0.27743139	     -2.44010178	      2.15344000	     -0.18431379	      0.90266098	     -0.23008149	     26.56098437	      3.70088424	     -1.15823470	      6.06837294	      0.10591309	     -6.32828995	     -9.17810655	     -6.20700428	    -25.29601555	      1.18539029	     -4.22237257	     10.56919636	      0.18446728	     11.38973008	      0.13086963	     -6.20700428	     -6.15550765	      6.90884135	     -6.71647830	     -7.95831898	     -4.87931392	    -23.62919808	     27.54472076	    109.36572191	      8.15359030	     -9.05721907	      7.59884707	     35.83567598	    106.40259983
      0.06000000	      0.27679999	     -3.20546467	      2.00171105	     -0.16824649	      0.90243460	     -0.22989039	     26.75755832	      4.67584664	     -0.97332120	      7.92249132	      0.13827356	     -7.51562610	     -9.97158806	     -6.22127151	    -25.35403063	      0.26511817	     -4.98151476	     12.03392235	      0.21003157	      9.64548305	     -0.10618589	     -6.22127151	     -5.85167595	      8.13165706	     -6.61075740	     -8.07287370	     -5.04667480	    -23.93188666	     27.31515640	    109.34744688	      7.53080646	     -8.60702198	      7.32990268	     35.60566688	    106.37881982
      0.07000000	      0.14825376	     -3.98211180	      1.73809039	     -0.15220456	      0.90247127	     -0.22933817	     26.91670014	      5.86058391	      0.64268981	      9.54049695	      0.16651308	    -10.37183609	    -13.84025080	     -6.31020434	    -25.09388567	     -0.63046736	     -5.50102724	     13.77867219	      0.24048320	      7.51402735	     -0.82568956	     -6.31020434	     -5.42911958	      9.31816307	     -6.56288270	     -8.06881290	     -5.05860977	    -25.18353196	     27.22563325	    109.46493768	      6.70627104	     -7.95667179	      5.80587337	     35.55183765	    106.38282174
      0.08000000	      0.25652413	     -4.76472394	      1.47397462	     -0.13614644	      0.90320684	     -0.22872698	     27.05301265	      6.98799537	      1.36330446	     11.83158354	      0.20650009	    -10.44566325	    -14.94565339	     -6.32277459	    -24.81224287	     -1.62078861	     -6.22932914	     15.97337042	      0.27878791	      5.32256448	     -1.15641108	     -6.32277459	     -5.32869700	     10.49338606	     -6.37079403	     -8.04823046	     -5.18917218	    -25.45277632	     27.04405513	    109.45910401	      6.11706573	     -7.47132621	      5.49719540	     35.11511934	    106.32617740
      0.09000000	      0.14994170	     -5.43870023	      1.08411962	     -0.12013924	      0.90400974	     -0.22783205	     27.28495154	      8.18570300	      2.97456435	     13.97594692	      0.24392629	    -11.73994023	    -18.21198155	     -6.38580243	    -24.13471966	     -2.41457000	     -6.50871522	     18.35505546	      0.32035615	      2.32754115	     -2.59462833	     -6.38580243	     -4.98679065	     11.49318922	     -6.16405920	     -8.02103189	     -5.17283134	    -26.65792574	     27.06498921	    109.54908292	      5.35237425	     -6.81266825	      4.10855156	     34.82645705	    106.26442692
      0.10000000	      0.20439449	     -6.07327073	      0.69415223	     -0.10427473	      0.90535283	     -0.22686139	     27.29266973	      9.34334143	      4.25414283	     16.16707520	      0.28216869	    -11.63893128	    -20.09853852	     -6.42705945	    -23.30727421	     -3.28777502	     -7.06015369	     21.21398779	      0.37025393	     -0.72691516	     -3.44521515	     -6.42705945	     -4.90663881	     12.40929437	     -5.86578755	     -7.98163731	     -5.20770428	    -27.25403065	     27.10595621	    109.65096933	      4.71856881	     -6.31548589	      3.42137718	     34.45092585	    106.26015286
      0.11000000	      0.34459213	     -6.66791323	      0.31459901	     -0.08855069	      0.90709725	     -0.22578905	     27.02501279	     10.49021793	      5.44650466	     18.07090007	      0.31539670	    -11.38997098	    -22.00027402	     -6.47657942	    -22.33034315	     -4.17167135	     -7.47963347	     24.36196758	      0.42519655	     -4.23132817	     -4.63977536	     -6.47657942	     -4.95262571	     13.23603132	     -5.56656264	     -7.89027134	     -5.17967728	    -27.94286979	     27.23902679	    109.78006079	      4.07886735	     -5.83677276	      2.67044783	     34.12779885	    106.30571646
      0.12000000	      0.46075484	     -7.15808744	     -0.04207007	     -0.07316113	      0.90904084	     -0.22465582	     26.58877560	     11.50936868	      6.53277304	     19.63616348	      0.34271571	    -10.83505122	    -23.43726200	     -6.52078072	    -21.02246674	     -5.03711325	     -7.83623830	     27.87647839	      0.48653633	     -7.83269939	     -5.70673662	     -6.52078072	     -5.00979891	     13.88723385	     -5.23222879	     -7.80478610	     -5.13074308	    -28.43662300	     27.41241139	    109.90181601	      3.52743129	     -5.43116895	      2.07346557	     33.74224926	    106.37497320
      0.13000000	      0.60384409	     -7.66297679	     -0.34374280	     -0.05807299	      0.91117539	     -0.22344440	     25.87896564	     12.49275647	      7.41056661	     20.73465109	      0.36188793	     -9.92234216	    -24.40349728	     -6.53525108	    -19.48649667	     -6.06399760	     -8.24072206	     31.68151779	      0.55294680	    -11.04531964	     -6.03776487	     -6.53525108	     -5.11845217	     14.50058714	     -4.88617791	     -7.70284789	     -5.11762645	    -28.57449232	     27.55882664	    109.94089621	      3.04742269	     -5.12530914	      1.80438563	     33.35056867	    106.37334107
